<svg width="40" height="40" viewBox="0 0 40 40" fill="none" xmlns="http://www.w3.org/2000/svg">
<path fill-rule="evenodd" clip-rule="evenodd" d="M22.8343 15.2853C23.8418 14.7827 25.1237 14.0429 26.4072 13.0292C26.6778 13.5914 26.7075 14.0821 26.568 14.4782C26.4692 14.7574 26.283 15.0003 26.0382 15.1935C25.7731 15.4023 25.442 15.5543 25.076 15.6364C24.3815 15.7929 23.5706 15.7016 22.8343 15.2853ZM23.0089 20.4349L24.3426 21.2056C21.6195 22.7325 20.8792 25.5678 19.9999 28.3293C19.1206 25.5678 18.3802 22.7325 15.6573 21.2056L16.9909 20.4349C17.1199 20.3862 17.2302 20.2978 17.3059 20.1825C17.3817 20.0671 17.419 19.9308 17.4125 19.793C17.2903 17.2067 17.9883 16.063 18.9298 15.3449C19.2675 15.0877 19.6362 14.9585 19.9999 14.9585C20.3636 14.9585 20.7322 15.0877 21.0701 15.3449C22.0116 16.063 22.7096 17.2067 22.5874 19.793C22.5809 19.9308 22.6182 20.0671 22.6939 20.1825C22.7697 20.2978 22.8799 20.3862 23.0089 20.4349ZM19.9999 3.54785C21.5415 3.58926 23.0869 3.88866 24.4281 4.47111C25.3569 4.87497 26.2235 5.40843 27.0083 6.04634C27.3626 6.33432 27.6545 6.61253 27.9759 6.9328C28.8429 6.96279 30.1099 5.99922 30.6981 5.0976C29.6858 8.41786 25.0663 12.3388 21.8682 13.8391C21.8669 13.8386 21.866 13.8378 21.865 13.8371C21.291 13.3987 20.6455 13.1795 19.9999 13.1795C19.3542 13.1795 18.7088 13.3987 18.1349 13.8371C18.1339 13.8377 18.133 13.8387 18.1317 13.8391C14.9335 12.3388 10.3141 8.41786 9.30176 5.0976C9.88987 5.99922 11.1569 6.96279 12.0239 6.9328C12.3454 6.61264 12.6372 6.33432 12.9915 6.04634C13.7762 5.40843 14.6429 4.87497 15.5716 4.47111C16.913 3.88866 18.4584 3.58926 19.9999 3.54785ZM17.1655 15.2853C16.1581 14.7827 14.876 14.0429 13.5927 13.0292C13.322 13.5914 13.2924 14.0821 13.4317 14.4782C13.5306 14.7574 13.7168 15.0003 13.9615 15.1935C14.2268 15.4023 14.5579 15.5543 14.9239 15.6364C15.6184 15.7929 16.4292 15.7016 17.1655 15.2853Z" fill="white"/>
<path fill-rule="evenodd" clip-rule="evenodd" d="M27.813 11.7847C28.5196 11.0713 29.1422 10.2817 29.6428 9.57715L29.897 10.0559C30.7156 11.6943 31.1409 13.3261 31.1409 15.1625L31.1391 18.0766L31.1545 19.5872C31.2138 23.2959 32.0159 27.0481 33.8328 30.4819L30.0313 27.4152L27.3415 31.782L24.5157 29.1207L20 36.4519L15.4844 29.1208L12.6587 31.7822L9.96884 27.4153L6.16724 30.4821C7.98416 27.0482 8.78624 23.296 8.84564 19.5874L8.86101 18.0767L8.85925 15.1626C8.85925 13.3261 9.28444 11.6943 10.1032 10.056L10.3574 9.57726C10.858 10.2818 11.4805 11.0713 12.1871 11.7848L11.9665 12.2434C11.5378 13.134 11.3958 14.1298 11.7298 15.0769C11.9451 15.687 12.338 16.2101 12.8445 16.6094C13.3363 16.9973 13.9184 17.2587 14.5278 17.396C14.9248 17.4854 15.3293 17.5222 15.7311 17.5096C15.6373 18.0413 15.5964 18.5928 15.5937 19.1547L12.0077 21.2268L14.775 22.7787C14.9961 22.9027 15.2067 23.0449 15.4045 23.2036C17.6859 25.2529 19.0575 31.3154 20.0001 34.2766C20.9428 31.3154 22.3144 25.2529 24.5959 23.2036C24.7937 23.0448 25.0042 22.9027 25.2254 22.7787L27.9926 21.2268L24.4065 19.1547C24.4039 18.5928 24.3629 18.0413 24.2692 17.5096C24.671 17.5222 25.0754 17.4854 25.4724 17.396C26.0818 17.2587 26.664 16.9973 27.1557 16.6094C27.6622 16.2101 28.0552 15.687 28.2704 15.0769C28.6044 14.1298 28.4624 13.1341 28.0338 12.2434L27.8131 11.7848L27.813 11.7847Z" fill="white"/>
</svg>
