<svg width="40" height="40" viewBox="0 0 40 40" fill="none" xmlns="http://www.w3.org/2000/svg">
<path fill-rule="evenodd" clip-rule="evenodd" d="M16.3218 5.36126C14.3553 6.38567 12.7464 7.25252 12.7467 7.28778C12.7476 7.37878 17.4665 9.7686 17.634 9.76278C17.7102 9.76023 18.2629 9.50581 18.8621 9.19748L19.9519 8.63697L21.142 9.24873L22.3321 9.86059L24.2811 8.98483C27.2178 7.66518 27.5228 7.52057 27.475 7.47199C27.4116 7.40753 26.3582 6.84165 23.5004 5.33712C22.1193 4.60996 20.7788 3.897 20.5214 3.75273C20.2641 3.60847 20.0185 3.49241 19.9756 3.49466C19.9326 3.49691 18.2884 4.33688 16.3218 5.36126ZM7.69659 9.8277L5.64945 10.8851V15.5259C5.64945 18.0784 5.67633 20.1667 5.7093 20.1667C5.74216 20.1667 6.74936 19.7301 7.94747 19.1965L10.1259 18.2263V13.3345L11.1904 13.9145C12.0107 14.361 12.8314 14.8066 13.6527 15.2513L15.0505 16.0081L15.6725 15.7268C16.0626 15.5502 16.4519 15.3718 16.8404 15.1916C17.1407 15.0518 17.8777 14.7199 18.4781 14.4539C19.0786 14.1877 19.6345 13.9201 19.7133 13.8591C19.818 13.7781 18.5413 13.0725 14.991 11.2494C12.3149 9.87518 10.0395 8.75516 9.93457 8.76053C9.82964 8.7659 8.82255 9.24606 7.69659 9.8277ZM27.844 10.1246C26.4497 10.7541 25.308 11.2942 25.3067 11.325C25.3055 11.3558 26.0654 11.8076 26.9955 12.3289C27.9255 12.8504 28.6865 13.3049 28.6865 13.3391C28.6865 13.3733 27.8635 13.772 26.8578 14.2254C25.8518 14.6787 23.3094 15.8269 21.2077 16.777L14.1655 19.9601C12.3941 20.7609 10.7973 21.4827 10.6172 21.5643C6.9989 23.2023 6.00438 23.6568 5.86781 23.7348C5.73047 23.8133 5.69936 24.2697 5.67492 26.56L5.64575 29.2917L7.4764 30.2244L9.30702 31.1572L11.8454 30.0115C13.2416 29.3815 14.3839 28.833 14.3839 28.7926C14.3839 28.7523 14.1259 28.5842 13.8107 28.4189C13.4954 28.2536 12.8444 27.8876 12.364 27.6055C11.8837 27.3233 11.4047 27.0644 11.2995 27.0301C11.1944 26.9958 11.1099 26.936 11.1116 26.8969C11.1134 26.8579 12.2312 26.327 13.5955 25.7169C16.2454 24.5321 18.2733 23.619 22.627 21.6501C24.5738 20.7699 26.5208 19.8903 28.4681 19.0112C30.1795 18.2387 32.1693 17.3365 32.89 17.0063L34.2001 16.406L34.2292 13.6432L34.2585 10.8806L32.4018 9.92753C31.3805 9.40343 30.5076 8.97588 30.4619 8.97744C30.4161 8.97889 29.2381 9.49507 27.844 10.1246ZM33.7027 20.0916C33.4291 20.2253 32.8886 20.4755 32.5017 20.6477C32.1148 20.8198 31.3805 21.1511 30.8701 21.384L29.9421 21.8073L29.9209 24.2327C29.9092 25.5667 29.8601 26.6522 29.8117 26.6452C29.7019 26.6288 27.9625 25.7368 26.2141 24.7999C24.9522 24.1238 24.8729 24.097 24.5764 24.2438C24.405 24.3288 23.3803 24.7883 22.2995 25.2652C21.2186 25.742 20.299 26.1633 20.2557 26.2014C20.2126 26.2395 22.388 27.4186 25.0901 28.8217L30.0029 31.3728L32.1016 30.2872C33.2557 29.6902 34.2371 29.1456 34.2823 29.0771C34.3841 28.9231 34.3753 19.8275 34.2735 19.8398C34.2332 19.8447 33.9763 19.958 33.7027 20.0916ZM22.0811 30.7676C21.7171 30.9241 21.3531 31.0808 20.9893 31.2378C19.8906 31.7131 20.1059 31.7289 18.7988 31.0781C17.9282 30.6448 17.5529 30.5111 17.3901 30.576C17.2679 30.6246 16.2164 31.0977 15.0532 31.6272C13.89 32.1567 12.898 32.59 12.8487 32.59C12.3607 32.59 13.172 33.0747 16.3026 34.6539L19.9741 36.5058L21.5189 35.7431C22.3686 35.3236 24.0823 34.4837 25.3272 33.8765C26.5721 33.2692 27.5753 32.7566 27.5565 32.7373C27.5376 32.718 26.4945 32.1824 25.2384 31.547L22.9546 30.3918L22.0811 30.7676Z" fill="white"/>
</svg>
