<svg width="40" height="40" viewBox="0 0 40 40" fill="none" xmlns="http://www.w3.org/2000/svg">
<path fill-rule="evenodd" clip-rule="evenodd" d="M18.7525 2.35124C25.9495 2.15829 31.4584 5.08182 35.279 11.1218C38.124 16.2965 38.4294 21.6199 36.1953 27.0919C33.3198 33.1507 28.5528 36.6524 21.8941 37.5969C14.8584 38.0983 9.30584 35.4912 5.23671 29.7754C1.986 24.5196 1.46239 18.9998 3.66588 13.2162C5.53629 8.98954 8.55792 5.88059 12.7309 3.88936C14.6563 3.02625 16.6635 2.51356 18.7525 2.35124ZM31.9733 20.9402L31.9734 20.9401C31.9734 20.8965 31.9516 20.8747 31.908 20.8747V20.8747C29.4443 22.7056 26.6736 23.7091 23.5958 23.8853C22.2711 23.9204 21.1366 23.484 20.1923 22.5763C21.7631 23.3535 23.4429 23.5826 25.2321 23.2635C27.6379 22.9163 29.8632 22.0982 31.908 20.8092C31.967 20.6635 32.076 20.5981 32.2351 20.6129C32.9609 19.6298 33.2118 18.5389 32.9878 17.3403C32.737 16.696 32.3334 16.1615 31.777 15.7368C31.3623 15.442 30.926 15.1802 30.468 14.9514C28.6011 14.3363 26.7466 13.6818 24.9046 12.9878C24.65 12.8179 24.4645 12.5888 24.3482 12.3006C23.6255 11.4119 22.6873 11.0192 21.5338 11.1224C21.0071 11.1302 20.4834 11.1739 19.963 11.2533C16.6026 10.6426 13.581 11.3953 10.8979 13.5114C9.71346 14.6255 8.98263 15.9891 8.70531 17.6021C8.52303 19.3893 8.34847 21.1783 8.1817 22.9692C7.95314 25.1708 7.40767 27.287 6.54541 29.318C3.50512 24.6318 2.87247 19.6357 4.64732 14.3296C7.32501 7.98796 12.092 4.44271 18.9485 3.69369C25.415 3.55035 30.4221 6.15754 33.9696 11.5151C36.8336 16.4967 37.1172 21.6237 34.8205 26.8963C32.3591 31.9034 28.3884 34.9796 22.9083 36.1249C22.7061 34.3958 22.9679 32.7377 23.6937 31.1506C24.7178 28.9932 26.0486 27.0514 27.6863 25.3254C29.1522 23.8922 30.5813 22.4305 31.9733 20.9402ZM20.5522 14.6565C19.8524 13.3952 18.7725 12.7843 17.3124 12.8238C16.9388 12.9083 16.568 13.0282 16.1997 13.1838C14.292 14.5421 13.9975 16.1893 15.3161 18.1254C16.6109 19.34 18.0181 19.4818 19.5377 18.5508C20.7711 17.4901 21.1093 16.192 20.5522 14.6565ZM29.5842 19.4996C29.7693 18.8026 29.4967 18.4535 28.7661 18.4523C28.5934 18.5707 28.4515 18.7234 28.3407 18.9105C28.297 19.085 28.297 19.2595 28.3407 19.4341C28.7345 19.9182 29.149 19.94 29.5842 19.4996Z" fill="#FDFEFE"/>
</svg>
