<svg width="67" height="68" viewBox="0 0 67 68" fill="none" xmlns="http://www.w3.org/2000/svg">
<path d="M63.9955 32.0449C64.9319 49.557 59.5271 64.083 33.9824 65.4488C16.4703 66.3852 3.75765 58.4957 2.82129 40.9836C1.88493 23.4714 8.10165 3.23427 30.5915 2.03176C48.1037 1.0954 65.6145 5.02485 63.9955 32.0449Z" fill="#0051FE"/>
<path fill-rule="evenodd" clip-rule="evenodd" d="M51.8178 19.2871C53.0493 20.3955 53.1491 22.2924 52.0408 23.5239C49.7438 26.0761 44.3307 32.6193 41.0303 38.3201C37.0865 45.1322 30.7317 48.0967 27.7078 48.7686C26.8096 48.9682 25.8695 48.7445 25.1574 48.1619L21.0943 44.8376L15.8968 42.2022C14.4191 41.4529 13.8286 39.6475 14.5779 38.1698C15.3272 36.692 17.1326 36.1015 18.6103 36.8508L24.0984 39.6336C24.2917 39.7316 24.4737 39.8502 24.6414 39.9874L27.6991 42.4891C29.877 41.6068 33.4507 39.4369 35.8377 35.3139C39.4419 29.0885 45.1703 22.1886 47.581 19.5101C48.6894 18.2786 50.5862 18.1787 51.8178 19.2871Z" fill="white"/>
</svg>
