<svg width="40" height="40" viewBox="0 0 40 40" fill="none" xmlns="http://www.w3.org/2000/svg">
<path d="M33.3622 10.2136C33.3311 9.49866 32.7094 8.97022 31.9944 9.0013C31.9634 9.0013 31.9323 9.0013 31.9012 9.0013C31.7458 9.03239 31.5593 9.06347 31.4038 9.12564C30.6578 9.40541 5.60336 19.0728 4.20454 19.6323C3.83152 19.7567 3.4585 20.0054 3.20982 20.3162C2.93006 20.5649 2.93006 21.0001 3.20982 21.2798C3.24091 21.3109 3.27199 21.342 3.33416 21.3731C3.58284 21.5596 3.83152 21.6839 4.14237 21.7772L10.981 23.9221C11.2297 23.7977 11.4473 23.6734 11.696 23.518C13.1881 22.5854 25.0003 15.125 26.6168 14.0992C26.8965 13.8816 27.2074 13.7262 27.5493 13.633C27.798 13.5708 27.9845 13.6019 28.0467 13.7262C28.0777 13.9127 28.0156 14.0992 27.8602 14.1925C27.5493 14.4722 27.2074 14.7831 26.8965 15.0629C26.4613 15.4359 15.9235 24.9479 15.4573 25.383C15.2708 25.5385 15.1464 25.6939 15.0221 25.8804C15.4884 26.2223 24.0678 32.5637 26.0572 34.0247C26.337 34.2422 26.6789 34.3977 27.0519 34.4598C27.6115 34.6153 28.2332 34.3355 28.4819 33.8071C28.6373 33.4962 28.7616 33.1543 28.8238 32.7813C29.3522 30.2323 33.1446 12.3585 33.4243 10.9597C33.3933 10.7421 33.3933 10.4623 33.3622 10.2136Z" fill="white"/>
</svg>
