<svg width="308" height="170" viewBox="0 0 308 170" fill="none" xmlns="http://www.w3.org/2000/svg">
<mask id="path-1-outside-1_105_3" maskUnits="userSpaceOnUse" x="1.875" y="5.41797" width="304" height="162" fill="black">
<rect fill="white" x="1.875" y="5.41797" width="304" height="162"/>
<path fill-rule="evenodd" clip-rule="evenodd" d="M182.37 122.525C295.479 100.243 303.769 80.8676 299.906 52.6177C293.109 2.90765 258.97 5.06652 156.515 19.076C54.0599 33.0855 1.71956 51.4586 7.27578 92.0926C7.71507 95.3053 7.85549 98.7188 7.99842 102.193C9.10807 129.168 10.3694 159.831 152.795 128.827L259.974 161.848L182.37 122.525Z"/>
</mask>
<path fill-rule="evenodd" clip-rule="evenodd" d="M182.37 122.525C295.479 100.243 303.769 80.8676 299.906 52.6177C293.109 2.90765 258.97 5.06652 156.515 19.076C54.0599 33.0855 1.71956 51.4586 7.27578 92.0926C7.71507 95.3053 7.85549 98.7188 7.99842 102.193C9.10807 129.168 10.3694 159.831 152.795 128.827L259.974 161.848L182.37 122.525Z" fill="white"/>
<path d="M299.906 52.6177L304.86 51.9404L304.86 51.9404L299.906 52.6177ZM182.37 122.525L181.404 117.619C179.31 118.032 177.709 119.727 177.417 121.841C177.125 123.955 178.207 126.021 180.11 126.985L182.37 122.525ZM156.515 19.076L155.837 14.1221L155.837 14.1221L156.515 19.076ZM7.27578 92.0926L12.2297 91.4153L12.2297 91.4153L7.27578 92.0926ZM7.99842 102.193L3.00265 102.399L7.99842 102.193ZM152.795 128.827L154.267 124.049C153.445 123.796 152.571 123.759 151.731 123.942L152.795 128.827ZM259.974 161.848L258.501 166.626C260.983 167.391 263.637 166.129 264.61 163.721C265.582 161.313 264.55 158.562 262.234 157.388L259.974 161.848ZM294.952 53.2951C295.885 60.1198 295.971 65.7225 294.323 70.7752C292.721 75.6894 289.29 80.6366 282.109 85.7316C267.359 96.1977 238.013 106.468 181.404 117.619L183.336 127.431C239.836 116.301 271.19 105.742 287.896 93.8871C296.444 87.8217 301.43 81.2356 303.83 73.8754C306.185 66.6536 305.858 59.2406 304.86 51.9404L294.952 53.2951ZM157.192 24.0299C182.82 20.5256 204.028 17.7836 221.58 16.4007C239.176 15.0143 252.753 15.0268 263.212 16.8757C273.573 18.7074 280.497 22.2721 285.281 27.7308C290.134 33.2685 293.32 41.3594 294.952 53.2951L304.86 51.9404C303.093 39.021 299.463 28.7405 292.802 21.1398C286.071 13.4601 276.782 9.11953 264.952 7.02837C253.22 4.9544 238.627 5.02654 220.794 6.43161C202.917 7.84022 181.437 10.6216 155.837 14.1221L157.192 24.0299ZM12.2297 91.4153C11.0094 82.4912 12.9463 75.0571 17.8464 68.5063C22.8708 61.7893 31.2546 55.6855 43.4557 50.1539C67.9224 39.0615 105.967 31.0343 157.192 24.0299L155.837 14.1221C104.608 21.1272 65.2547 29.2913 39.3265 41.0462C26.3302 46.9384 16.2673 53.9223 9.8388 62.5165C3.28607 71.2767 0.764029 81.3771 2.32188 92.77L12.2297 91.4153ZM12.9942 101.988C12.8533 98.5633 12.7069 94.9053 12.2297 91.4153L2.32188 92.77C2.72323 95.7053 2.85766 98.8743 3.00265 102.399L12.9942 101.988ZM151.731 123.942C116.264 131.662 89.7694 135.502 69.9772 136.546C50.1158 137.594 37.3954 135.801 29.2291 132.598C21.3321 129.5 17.6642 125.085 15.698 120.221C13.5801 114.982 13.279 108.91 12.9942 101.988L3.00265 102.399C3.27272 108.964 3.5454 116.841 6.42686 123.969C9.46004 131.472 15.2171 137.843 25.5772 141.907C35.6681 145.866 50.0371 147.612 70.504 146.532C91.0401 145.448 118.113 141.494 153.858 133.713L151.731 123.942ZM261.446 157.07L154.267 124.049L151.322 133.606L258.501 166.626L261.446 157.07ZM180.11 126.985L257.714 166.308L262.234 157.388L184.63 118.065L180.11 126.985Z" fill="#0051FE" mask="url(#path-1-outside-1_105_3)"/>
<path d="M73.6755 96.7714L72.7654 91.2201C72.6103 90.3431 72.3969 89.6073 72.1252 89.0127L66.7592 89.9614L66.2676 87.585L71.4605 86.6668L69.8813 77.735C69.9138 77.5151 70.0155 77.2829 70.1865 77.0384C70.4525 76.6582 70.6893 76.4497 70.8971 76.413C71.1279 76.3722 71.3281 76.3606 71.4978 76.3782C71.6676 76.3958 71.8692 76.5267 72.1028 76.771C72.7414 78.229 73.3321 80.4927 73.8748 83.5623C74.0095 84.3239 74.1767 85.0679 74.3765 85.7942C75.0987 85.5713 75.8291 85.3946 76.5677 85.264C76.5677 85.264 77.1677 85.1579 78.3679 84.9457C78.8064 84.8682 79.2062 84.7737 79.5673 84.6622L79.9042 87.1732L74.8253 87.9284L77.1101 99.8414C76.7273 100.1 76.3859 100.255 76.0859 100.308C74.9319 100.512 74.1284 99.3333 73.6755 96.7714Z" fill="#0051FE"/>
<path d="M100.613 82.4049C99.5216 81.8839 98.2141 81.758 96.6909 82.0274C95.2599 82.2804 93.9798 82.7804 92.8504 83.5275C90.7139 84.9049 89.3533 86.4307 88.7687 88.105C88.5218 88.8626 88.4678 89.6338 88.6065 90.4185C88.631 90.557 88.7004 90.9494 88.8146 91.5956C88.9248 92.2187 89.1912 93.0523 89.6138 94.0962C90.0323 95.1171 90.3394 96.1814 90.5353 97.2892C90.0547 97.398 89.6726 97.5251 89.3889 97.6704C89.1052 97.8158 88.8594 97.9068 88.6517 97.9436C88.444 97.9803 88.2431 97.9206 88.0489 97.7645C87.8777 97.6044 87.6529 97.2752 87.3744 96.777C87.3269 96.6426 87.2113 96.2585 87.0278 95.6245C86.8443 94.9905 86.6133 94.2221 86.3347 93.3193C86.0791 92.4125 85.7862 91.4289 85.4559 90.3687C85.1447 89.2812 84.8375 88.2169 84.5344 87.1757C83.8724 84.9126 83.3763 83.2509 83.0461 82.1907C82.9481 81.6368 83.3031 81.2884 84.1108 81.1456C84.5955 81.0599 85.013 81.2003 85.3634 81.5667C85.7098 81.9101 86.0106 82.3329 86.2661 82.8352C86.5174 83.3144 86.711 83.8038 86.847 84.3034C87.006 84.7989 87.1269 85.1464 87.2098 85.346C89.7748 82.0839 93.3191 80.053 97.8427 79.2532C98.3504 79.1634 98.8833 79.0811 99.4413 79.0063C99.5757 78.9587 99.7467 78.9165 99.9544 78.8798C100.162 78.8431 100.394 78.9448 100.651 79.1851C100.962 79.4633 101.158 79.8332 101.24 80.2948C101.444 81.4488 101.235 82.1521 100.613 82.4049Z" fill="#0051FE"/>
<path d="M117.503 105.909C117.21 107.08 116.729 107.724 116.06 107.842C115.737 107.899 115.468 107.792 115.253 107.521C115.066 107.268 115.007 106.934 115.076 106.517C115.204 104.281 115.499 101.706 115.959 98.7919C116.443 95.8741 116.763 93.9135 116.918 92.9101C115.968 92.2451 114.413 90.854 112.253 88.7367C107.818 84.3799 105.557 81.9592 105.471 81.4745C105.467 81.4515 105.475 81.4263 105.494 81.3992L106.577 79.851C108.698 81.2135 111.581 83.655 115.226 87.1757C116.144 88.0606 116.884 88.8105 117.445 89.4254C117.758 88.3703 117.992 87.4721 118.147 86.7308C118.297 85.9663 118.416 85.3621 118.504 84.9181C118.611 84.447 118.752 83.8271 118.925 83.0586C119.371 81.0043 120.026 78.3776 120.888 75.1786C121.079 75.0495 121.291 74.9646 121.521 74.9238C122.098 74.8218 122.54 74.8984 122.847 75.1535C122.96 75.2526 123.031 75.3829 123.059 75.5445C123.084 75.6829 123.085 75.8255 123.063 75.9721L117.503 105.909Z" fill="#0051FE"/>
<path d="M159.093 79.1698C157.844 82.1992 155.834 84.2921 153.063 85.4484C152.418 85.7052 151.819 85.8826 151.265 85.9805C150.734 86.0744 150.284 86.1539 149.915 86.2192C149.564 86.2573 149.162 86.269 148.707 86.2542C148.252 86.2394 147.822 86.1608 147.416 86.0184C146.476 85.6847 145.929 85.0794 145.774 84.2024C145.608 83.8032 145.48 83.3498 145.39 82.8421C145.297 82.3112 145.29 81.5985 145.369 80.7037C145.449 79.809 145.701 78.8123 146.126 77.7138C146.574 76.6112 147.163 75.5669 147.893 74.581C149.406 72.5046 151.179 71.0248 153.213 70.1416C153.811 69.893 154.365 69.7238 154.872 69.634C155.403 69.5401 155.882 69.4911 156.31 69.4869C157.649 69.2502 158.71 70.0027 159.494 71.7444C159.998 72.8453 160.457 74.4303 160.87 76.4993C161.303 78.5411 161.642 80.1234 161.888 81.2461C162.153 82.3417 162.483 83.3307 162.877 84.213L160.834 84.5742C160.632 83.9674 160.464 83.4257 160.333 82.9492C160.201 82.4727 160.075 82.0308 159.955 81.6235C159.669 80.6746 159.381 79.8567 159.093 79.1698ZM158.006 73.8283C157.769 72.4896 156.993 71.9366 155.678 72.1692C155.512 72.1747 155.348 72.1917 155.187 72.2203C153.502 72.5182 151.868 73.6402 150.284 75.5863C149.537 76.4799 148.934 77.4434 148.474 78.4767C147.784 79.9555 147.53 81.2142 147.714 82.2527C147.955 83.6144 148.882 84.2835 150.497 84.2599C152.566 83.8465 154.383 82.5493 155.949 80.3683C156.614 79.4177 157.128 78.4223 157.492 77.3822C158.006 75.9822 158.177 74.7976 158.006 73.8283Z" fill="#0051FE"/>
<path d="M179.647 96.7424L179.156 96.7935C178.464 96.9159 177.733 97.0927 176.965 97.3237L175.649 97.5563C174.265 97.8011 173.133 97.7275 172.254 97.3354C171.79 97.1319 171.509 96.7532 171.411 96.1993L179.306 94.4107C181.74 93.9089 182.731 92.3771 182.278 89.8153C182.261 89.7229 182.233 89.5614 182.192 89.3306C182.155 89.1229 182.072 88.6497 181.941 87.9112L180.143 76.7332C180.074 76.3408 180.005 76.0198 179.937 75.77C176.815 79.916 173.522 82.2951 170.06 82.9072C169.76 82.9603 169.458 83.0018 169.154 83.0317C167.608 83.3052 166.714 82.761 166.473 81.3993C166.332 80.3295 166.437 79.1089 166.79 77.7375C167.138 76.343 167.659 74.9777 168.351 73.6415C169.062 72.2781 169.91 71.0213 170.897 69.871C172.417 68.1028 174.008 67.0718 175.67 66.778C177.608 66.4352 179.383 67.1807 180.992 69.0144C182.332 74.442 183.207 78.3098 183.615 80.6178C184.023 82.9257 184.323 84.8244 184.515 86.3137C184.707 87.803 184.784 89.1817 184.746 90.4499C184.732 91.7139 184.592 92.7383 184.326 93.5231C184.06 94.308 183.69 94.9089 183.216 95.3258C182.429 95.9887 181.239 96.4609 179.647 96.7424ZM176.913 69.1644C176.62 69.121 176.219 69.1443 175.711 69.234C175.227 69.3197 174.629 69.6397 173.917 70.1938C173.206 70.748 172.552 71.423 171.955 72.2188C171.354 72.9915 170.813 73.8369 170.333 74.7548C169.16 77.009 168.678 78.7246 168.886 79.9017C168.952 80.2709 169.104 80.5295 169.345 80.6774C169.523 80.7412 169.727 80.7527 169.958 80.7119C170.212 80.667 170.563 80.5691 171.013 80.4182C171.458 80.2443 172.044 79.9264 172.772 79.4646C173.518 78.9756 174.272 78.3901 175.032 77.7083C175.792 77.0265 176.461 76.3013 177.039 75.5326C178.394 73.7699 178.946 72.1846 178.697 70.7768C178.546 69.9228 177.952 69.3854 176.913 69.1644Z" fill="#0051FE"/>
<path d="M200.372 71.8713C199.122 74.9008 197.112 76.9936 194.342 78.15C193.697 78.4068 193.097 78.5841 192.544 78.6821C192.013 78.7759 191.563 78.8555 191.193 78.9208C190.843 78.9589 190.441 78.9706 189.986 78.9558C189.531 78.941 189.1 78.8624 188.694 78.72C187.755 78.3863 187.207 77.781 187.052 76.9039C186.887 76.5048 186.759 76.0514 186.669 75.5437C186.575 75.0128 186.568 74.3 186.648 73.4053C186.728 72.5105 186.98 71.5139 187.405 70.4154C187.852 69.3128 188.441 68.2685 189.171 67.2826C190.685 65.2062 192.458 63.7264 194.491 62.8432C195.09 62.5946 195.643 62.4253 196.151 62.3356C196.682 62.2417 197.161 62.1927 197.589 62.1885C198.927 61.9518 199.989 62.7043 200.773 64.446C201.277 65.5469 201.735 67.1319 202.149 69.2008C202.581 71.2427 202.921 72.825 203.167 73.9477C203.432 75.0433 203.761 76.0323 204.155 76.9146L202.113 77.2758C201.91 76.6689 201.743 76.1273 201.611 75.6508C201.479 75.1743 201.354 74.7324 201.234 74.3251C200.947 73.3762 200.66 72.5582 200.372 71.8713ZM199.285 66.5298C199.048 65.1912 198.272 64.6382 196.956 64.8708C196.791 64.8763 196.627 64.8933 196.465 64.9219C194.781 65.2198 193.146 66.3418 191.563 68.2879C190.816 69.1815 190.213 70.145 189.753 71.1783C189.062 72.6571 188.809 73.9157 188.993 74.9543C189.233 76.316 190.161 76.9851 191.775 76.9615C193.844 76.548 195.662 75.2508 197.228 73.0699C197.893 72.1193 198.407 71.1239 198.771 70.0838C199.285 68.6838 199.456 67.4992 199.285 66.5298Z" fill="#0051FE"/>
<path d="M208.54 59.574C209.603 63.8368 210.74 68.7886 211.952 74.4294C211.94 75.1694 211.449 75.6251 210.48 75.7964C210.226 75.8413 209.952 75.8421 209.659 75.7988C209.385 75.7282 209.197 75.6068 209.095 75.4344L206.359 59.9596L208.54 59.574ZM204.488 55.435C204.345 54.6272 204.746 54.1396 205.693 53.9723C206.316 53.8622 206.848 53.9109 207.289 54.1185C207.403 54.3601 207.483 54.6078 207.528 54.8617C207.569 55.0925 207.517 55.3396 207.373 55.6031C207.23 55.8665 206.973 56.0309 206.604 56.0962C206.234 56.1615 205.851 56.146 205.453 56.0497C205.051 55.9304 204.729 55.7254 204.488 55.435Z" fill="#0051FE"/>
<path d="M228.309 65.0396C227.824 62.2931 227.317 60.3002 226.788 59.0608C226.911 58.682 226.604 58.5578 225.865 58.6884C225.081 58.8271 224.1 59.2029 222.923 59.8156C221.746 60.4283 220.8 61.0002 220.085 61.5313C218.374 62.7619 217.491 63.8226 217.434 64.7132L219.099 74.1297L216.779 74.5398C216.341 73.8081 215.801 71.6306 215.16 68.0071C214.589 64.7759 214.226 62.3885 214.072 60.8449C213.942 59.2972 213.892 58.4133 213.925 58.1934C214.456 57.6949 214.906 57.413 215.275 57.3478C215.852 57.2457 216.261 57.8756 216.501 59.2373C216.595 59.7681 216.653 60.2935 216.673 60.8135C216.713 61.3063 216.749 61.6451 216.781 61.8297C220.035 58.4222 222.688 56.5368 224.742 56.1736C227.073 55.7615 228.733 57.4078 229.721 61.1127C230.092 62.4037 230.484 64.2148 230.896 66.5458L231.345 69.2868C231.525 70.3023 231.721 71.2791 231.935 72.2172C231.728 72.3965 231.556 72.4984 231.417 72.5229C231.344 72.512 231.188 72.504 230.949 72.4986C230.71 72.4932 230.404 72.5117 230.031 72.5539C229.637 71.6715 229.344 70.7592 229.154 69.8171C228.959 68.8518 228.791 67.9653 228.648 67.1575L228.309 65.0396Z" fill="#0051FE"/>
</svg>
