<svg width="327" height="191" viewBox="0 0 327 191" fill="none" xmlns="http://www.w3.org/2000/svg">
<mask id="path-1-outside-1_105_10" maskUnits="userSpaceOnUse" x="-3.23206" y="-6.13235" width="332.667" height="197.099" fill="black">
<rect fill="white" x="-3.23206" y="-6.13235" width="332.667" height="197.099"/>
<path fill-rule="evenodd" clip-rule="evenodd" d="M173.78 13.1271C307.369 26.41 319.398 60.6104 319.238 83.7026C318.827 142.799 255.591 140.215 167.936 136.341L55.0703 182.829L130.615 133.849C44.7607 125.67 3.83207 102.618 5.97156 70.4979C8.38334 34.2899 22.9075 4.90092 173.78 13.1271Z"/>
</mask>
<path fill-rule="evenodd" clip-rule="evenodd" d="M173.78 13.1271C307.369 26.41 319.398 60.6104 319.238 83.7026C318.827 142.799 255.591 140.215 167.936 136.341L55.0703 182.829L130.615 133.849C44.7607 125.67 3.83207 102.618 5.97156 70.4979C8.38334 34.2899 22.9075 4.90092 173.78 13.1271Z" fill="white"/>
<path d="M319.238 83.7026L324.238 83.7374L324.238 83.7374L319.238 83.7026ZM173.78 13.1271L174.053 8.13455C174.127 8.1386 174.201 8.14431 174.275 8.15167L173.78 13.1271ZM167.936 136.341L166.032 131.718C166.705 131.441 167.43 131.314 168.157 131.346L167.936 136.341ZM55.0703 182.829L56.9745 187.453C54.5862 188.436 51.8417 187.439 50.6421 185.151C49.4426 182.864 50.1829 180.039 52.3502 178.634L55.0703 182.829ZM130.615 133.849L131.09 128.872C133.208 129.074 134.966 130.594 135.472 132.66C135.978 134.727 135.121 136.887 133.336 138.045L130.615 133.849ZM5.97156 70.4979L0.982616 70.1656L0.982616 70.1656L5.97156 70.4979ZM314.238 83.6679C314.275 78.351 313.609 72.7088 310.855 66.962C308.109 61.234 303.11 55.0295 293.895 48.8992C275.26 36.5014 239.87 24.7232 173.286 18.1026L174.275 8.15167C241.279 14.814 278.698 26.7774 299.434 40.5735C309.906 47.5402 316.233 55.0457 319.872 62.6401C323.503 70.2157 324.281 77.5081 324.238 83.7374L314.238 83.6679ZM168.157 131.346C212.276 133.296 249.179 134.83 275.167 128.766C288.043 125.762 297.647 121.011 304.068 114.021C310.4 107.128 314.142 97.504 314.238 83.6679L324.238 83.7374C324.128 99.4493 319.812 111.664 311.432 120.786C303.142 129.811 291.381 135.252 277.439 138.505C249.793 144.955 211.251 143.26 167.716 141.337L168.157 131.346ZM53.166 178.206L166.032 131.718L169.841 140.965L56.9745 187.453L53.166 178.206ZM133.336 138.045L57.7903 187.025L52.3502 178.634L127.895 129.654L133.336 138.045ZM10.9605 70.8302C10.0758 84.1124 17.8285 96.3965 37.6089 106.719C57.4608 117.078 88.4041 124.805 131.09 128.872L130.141 138.827C86.972 134.714 54.5237 126.825 32.9824 115.584C11.3697 104.306 -0.272164 89.0037 0.982616 70.1656L10.9605 70.8302ZM173.508 18.1197C98.0907 14.0076 57.8926 19.4146 36.3514 29.6646C25.8034 34.6837 19.9116 40.7844 16.4182 47.4285C12.852 54.2112 11.549 61.9953 10.9605 70.8302L0.982616 70.1656C1.60002 60.8966 3.01692 51.4289 7.56708 42.7748C12.1901 33.9821 19.8111 26.4607 32.0547 20.6348C56.0967 9.19481 98.5972 4.02041 174.053 8.13455L173.508 18.1197Z" fill="#0051FE" mask="url(#path-1-outside-1_105_10)"/>
<path d="M79.6736 79.6238C79.4375 80.0079 78.8751 80.1714 77.9863 80.1142C77.1209 80.0585 76.7085 79.715 76.7491 79.0835C76.9266 76.3235 76.9899 74.4252 76.9392 73.3886C76.8746 71.1063 76.5084 69.8615 75.8406 69.6542C74.1776 69.2184 72.8082 68.966 71.7323 68.8968C70.6798 68.8291 69.7816 69.1001 69.0379 69.7099C68.319 70.2978 67.7243 71.3282 67.2538 72.801C66.8082 74.252 66.417 76.3171 66.0804 78.9963L63.3789 78.8226C63.5114 77.4924 63.6145 76.2543 63.6882 75.1082C63.7619 73.9621 63.8258 72.6041 63.8798 71.034C63.9353 69.4405 63.9881 67.7059 64.0382 65.8303C64.0597 63.671 64.1178 61.8545 64.2125 60.381C64.3088 58.8841 64.4903 57.5219 64.7571 56.2943C65.0196 55.8649 65.373 55.6645 65.8174 55.6931C66.3554 55.7277 66.7636 55.9536 67.0421 56.3707C67.3221 56.7645 67.464 57.1142 67.4678 57.4198L66.9202 63.1973C66.7803 65.3725 66.781 67.0048 66.9223 68.0943C69.1176 66.8263 71.3379 66.2645 73.5833 66.4089C74.3083 66.4555 75.0764 66.5636 75.8875 66.7332C77.5831 67.7582 78.6667 68.8025 79.1385 69.8662C79.3612 70.4207 79.4881 71.0043 79.5191 71.6169C79.5502 72.2296 79.5526 72.9225 79.5263 73.6959C79.4952 76.3713 79.5443 78.3473 79.6736 79.6238Z" fill="#0051FE"/>
<path d="M96.3248 58.8174C98.6637 58.9679 100.209 59.2199 100.962 59.5736L100.851 61.2927C100.214 61.3456 99.3444 61.3485 98.2436 61.3012C97.1443 61.2305 95.9741 61.167 94.733 61.1106C91.2669 60.9582 88.8933 60.9817 87.6122 61.1812C87.0943 63.0267 86.8252 64.2894 86.805 64.9692C86.7847 65.649 86.7743 66.1768 86.7736 66.5525C86.8085 67.4707 86.7861 68.5496 86.7064 69.7892C88.2968 69.8915 90.1185 69.8677 92.1714 69.7179C94.2477 69.5696 95.851 69.4731 96.9812 69.4283C98.1129 69.3602 99.2752 69.3645 100.468 69.4412L100.344 71.3708L86.7985 72.1907L86.6391 77.958C88.9546 78.1069 91.3237 78.1536 93.7463 78.098C96.1938 78.0205 98.0404 77.9748 99.286 77.961C100.557 77.9253 101.894 77.9525 103.297 78.0428C103.267 78.5106 103.098 78.9459 102.79 79.3489C102.181 80.0612 101.663 80.2511 101.239 79.9185C97.0936 80.0981 93.3872 80.2121 90.1196 80.2603C86.8753 80.31 84.6888 80.3456 83.5602 80.3669L85.1399 57.9925C85.7359 58.2187 86.8526 58.3845 88.4899 58.4898L96.3248 58.8174Z" fill="#0051FE"/>
<path d="M115.996 83.0869C115.622 83.0628 115.232 82.9203 114.826 82.6593C114.039 82.1155 113.739 81.6617 113.927 81.298C114.239 80.8249 114.665 79.8659 115.204 78.4209L116.354 75.3243C116.746 74.3396 117.145 73.2497 117.551 72.0545L108.797 61.9094C108.647 61.6883 108.577 61.4959 108.588 61.3322C108.598 61.1685 108.7 61.0459 108.893 60.9644C109.206 60.8436 109.573 60.7967 109.994 60.8238C110.439 60.8524 110.879 60.9511 111.314 61.12C111.773 61.2904 112.323 61.6781 112.965 62.2831C114.226 63.4915 116.261 66.0061 119.068 69.827C120.707 65.8928 121.867 63.3722 122.549 62.2652C123.232 61.1349 123.76 60.4173 124.132 60.1124C124.528 59.7856 124.868 59.6195 125.15 59.6142C125.456 59.6104 125.712 59.6386 125.92 59.6989C126.127 59.7592 126.269 59.9327 126.344 60.2194C125.52 61.7165 124.705 63.4255 123.901 65.3466C123.121 67.2458 122.313 69.2137 121.478 71.2502C119.275 76.6512 117.448 80.5968 115.996 83.0869Z" fill="#0051FE"/>
<path d="M159.79 75.5457C159.165 77.2201 158.631 78.771 158.187 80.1986C157.766 81.6277 157.362 82.8111 156.972 83.749C156.369 85.0959 155.74 85.7483 155.085 85.7062C154.734 85.6836 154.347 85.4943 153.924 85.1383C152.922 83.923 151.565 81.2876 149.853 77.2318C148.181 73.2727 147.376 70.8136 147.438 69.8547C147.465 69.4337 147.61 69.1846 147.874 69.1076C148.138 69.0072 148.432 69.0143 148.753 69.129C149.533 69.414 150.071 69.8126 150.367 70.3248C150.516 70.5693 150.688 70.9914 150.885 71.5911L151.622 73.8227C152.446 76.3418 153.272 78.6495 154.101 80.7461C154.666 79.9839 155.224 78.9864 155.773 77.7534L157.054 74.8062C158.16 72.2234 159.088 70.9326 159.84 70.934C160.449 70.5974 162.07 72.7801 164.703 77.4822C165.819 79.4799 166.517 80.6756 166.797 81.0693C167.008 81.0829 167.299 80.397 167.67 79.0117C168.064 77.6279 168.397 76.4633 168.669 75.5179C168.966 74.5506 169.306 73.6564 169.687 72.8355C170.585 70.9204 171.537 69.9952 172.543 70.0599C172.871 70.0809 173.085 70.2122 173.187 70.4536C173.314 70.6731 173.373 70.8531 173.364 70.9934C173.355 71.1337 173.348 71.239 173.344 71.3091C173.012 72.0863 172.661 72.9797 172.29 73.9893C171.922 74.9755 171.527 75.9952 171.107 77.0486C170.712 78.08 170.305 79.1107 169.887 80.1407C169.493 81.1487 169.106 82.0633 168.724 82.8842C167.835 84.6589 167.128 85.5999 166.605 85.7072C166.195 85.8687 165.581 85.3713 164.763 84.2148C164.399 83.6747 164.017 83.0395 163.618 82.3092C163.218 81.579 162.797 80.8238 162.354 80.0438C161.282 78.096 160.427 76.5966 159.79 75.5457Z" fill="#0051FE"/>
<path d="M184.714 84.4057C186.773 84.538 189.932 83.8018 194.192 82.1968C194.449 82.2134 194.654 82.3205 194.806 82.5181C194.959 82.6924 195.028 82.8964 195.013 83.1303C193.975 84.6606 192.106 85.7852 189.406 86.504C186.706 87.2229 184.228 87.2162 181.974 86.4841C179.421 85.6389 177.937 84.0755 177.52 81.7941C177.501 81.3467 177.516 80.7487 177.564 80.0003C177.613 79.2518 177.863 78.2815 178.315 77.0893C178.793 75.8753 179.534 74.7487 180.541 73.7095C181.547 72.6704 182.702 71.8757 184.006 71.3254C185.309 70.7751 186.674 70.5459 188.101 70.6376C189.458 70.7248 190.948 71.2904 192.572 72.3342C193.338 72.8298 193.938 73.3733 194.369 73.9647C194.801 74.5561 194.998 75.1442 194.96 75.7289C194.95 75.8926 194.928 76.0556 194.894 76.2178C194.755 77.6416 194.007 78.4977 192.65 78.7862C192.055 78.9123 191.371 78.9505 190.599 78.9009L185.561 78.3655C183.877 78.2572 182.567 78.537 181.632 79.205C181.092 79.5695 180.691 80.1426 180.429 80.9243C180.877 83.0903 182.305 84.2508 184.714 84.4057ZM191.657 73.9664C191.166 73.5591 190.645 73.2555 190.095 73.0557C189.544 72.8559 189.081 72.7439 188.707 72.7198C188.333 72.6958 187.716 72.7853 186.858 72.9884C186.001 73.1682 185.235 73.389 184.561 73.651C182.899 74.2957 182.041 75.0273 181.989 75.8459C183.849 76.13 185.247 76.3021 186.183 76.3622C188.779 76.5292 190.548 76.4198 191.488 76.0341C192.065 75.8363 192.364 75.562 192.387 75.2111C192.414 74.7901 192.17 74.3752 191.657 73.9664Z" fill="#0051FE"/>
<path d="M203.569 71.5266C203.591 75.9199 203.523 81.0002 203.364 86.7675C203.177 87.4835 202.592 87.81 201.61 87.7468C201.352 87.7302 201.086 87.6662 200.812 87.5546C200.562 87.4211 200.408 87.2585 200.35 87.0669L201.358 71.3844L203.569 71.5266ZM200.613 66.5454C200.665 65.7267 201.171 65.3483 202.13 65.4099C202.762 65.4505 203.267 65.624 203.647 65.9302C203.7 66.192 203.719 66.4515 203.702 66.7088C203.687 66.9427 203.579 67.1706 203.376 67.3924C203.174 67.6143 202.886 67.7132 202.512 67.6891C202.138 67.6651 201.769 67.5591 201.405 67.3713C201.043 67.1602 200.779 66.8848 200.613 66.5454Z" fill="#0051FE"/>
<path d="M225.353 76.6265C224.416 75.8616 223.175 75.4296 221.632 75.3303C220.182 75.237 218.819 75.4195 217.545 75.8778C215.143 76.7097 213.46 77.8697 212.495 79.3577C212.076 80.0353 211.84 80.7718 211.789 81.567C211.78 81.7073 211.755 82.1049 211.713 82.7598C211.672 83.3914 211.733 84.2643 211.897 85.3786C212.061 86.4695 212.107 87.5764 212.035 88.699C211.543 88.6908 211.141 88.7237 210.831 88.7978C210.521 88.8718 210.261 88.902 210.05 88.8885C209.84 88.8749 209.659 88.7693 209.507 88.5717C209.379 88.3755 209.238 88.0025 209.086 87.4525C209.071 87.3107 209.05 86.91 209.022 86.2506C208.994 85.5912 208.952 84.79 208.895 83.8469C208.861 82.9053 208.81 81.8803 208.74 80.772C208.696 79.6418 208.649 78.535 208.602 77.4516C208.495 75.0961 208.406 73.3642 208.337 72.2559C208.373 71.6946 208.8 71.4402 209.619 71.4929C210.11 71.5245 210.482 71.7598 210.736 72.1988C210.991 72.6145 211.183 73.0966 211.312 73.6451C211.443 74.1701 211.515 74.6915 211.529 75.209C211.566 75.7281 211.601 76.0944 211.634 76.3079C214.899 73.7465 218.824 72.6132 223.408 72.908C223.923 72.9411 224.46 72.9874 225.02 73.0469C225.161 73.0325 225.338 73.0321 225.548 73.0457C225.759 73.0592 225.96 73.2131 226.153 73.5073C226.389 73.8513 226.492 74.2571 226.462 74.7249C226.387 75.8944 226.017 76.5282 225.353 76.6265Z" fill="#0051FE"/>
<path d="M248.047 62.6555C247.903 64.9009 247.691 67.095 247.412 69.2378C247.158 71.3587 246.907 73.4445 246.658 75.4952C246.433 77.524 246.247 79.6962 246.098 82.0118C245.95 84.3039 245.958 86.7469 246.12 89.3408C246.085 89.8787 245.955 90.2579 245.729 90.4782C245.527 90.7001 245.192 90.796 244.724 90.7659C243.625 90.6952 243.134 89.7477 243.251 87.9233L243.326 86.7656C239.845 89.0312 236.959 90.0904 234.667 89.943C233.754 89.8843 232.833 89.602 231.903 89.0959C230.996 88.5914 230.165 87.6337 229.41 86.223C229.329 85.6541 229.308 85.0773 229.345 84.4926C229.383 83.9079 229.533 83.213 229.796 82.4079C230.084 81.5809 230.596 80.7448 231.332 79.8997C232.09 79.056 232.983 78.3266 234.009 77.7115C236.254 76.3997 238.628 75.8243 241.13 75.9853C242.206 76.0544 243.225 76.2843 244.186 76.675C244.213 76.254 244.284 75.5187 244.398 74.4692C244.536 73.4212 244.678 72.3147 244.823 71.1498C245.159 68.1182 245.368 66.335 245.449 65.8C245.532 65.2417 245.621 64.7777 245.715 64.4079C245.834 64.0163 245.984 63.6855 246.166 63.4153C246.555 62.8532 247.181 62.5999 248.047 62.6555ZM231.924 84.3766C231.806 86.2244 232.413 87.1911 233.746 87.2768C233.956 87.2904 234.192 87.282 234.452 87.2518C235.411 87.3135 236.61 87.1088 238.05 86.6377C240.784 85.7566 242.468 84.949 243.102 84.2147L243.402 79.5486C243.455 78.7299 242.815 78.2778 241.482 78.192C241.319 78.1581 241.098 78.1321 240.817 78.1141C240.56 78.0975 240.147 78.1297 239.578 78.2105C239.009 78.2914 238.364 78.4613 237.643 78.7202C236.922 78.9792 236.208 79.309 235.501 79.7098C234.012 80.577 232.958 81.6365 232.337 82.8883C232.095 83.366 231.958 83.8621 231.924 84.3766Z" fill="#0051FE"/>
<path d="M251.88 84.4973C252.058 81.7374 253.393 79.5921 255.887 78.0615C257.868 76.8502 260.2 76.1899 262.884 76.0807C263.025 76.0897 263.352 76.1108 263.867 76.1439C264.381 76.177 265.061 76.3734 265.907 76.7331C267.783 77.5113 269.018 78.7533 269.613 80.459C269.852 81.132 269.956 81.7023 269.926 82.1701C269.897 82.6145 269.865 82.9295 269.83 83.1151C269.642 86.0388 268.383 88.2712 266.053 89.8123C263.895 91.2236 261.273 91.83 258.185 91.6315C255.963 91.4886 254.312 90.8658 253.233 89.7629C252.176 88.6616 251.725 86.9064 251.88 84.4973ZM254.247 85.495C254.154 86.9451 254.476 87.9523 255.215 88.5165C255.776 88.9283 256.746 89.1786 258.126 89.2674C259.506 89.3561 260.729 89.3291 261.795 89.1862C262.861 89.0434 263.82 88.741 264.672 88.2791C266.498 87.2692 267.487 85.5832 267.639 83.2208C267.729 81.8175 267.429 80.6474 266.738 79.7104C265.981 78.6988 264.935 78.1502 263.602 78.0644C262.68 78.1695 261.744 78.2855 260.797 78.4125C259.873 78.5409 258.984 78.8478 258.131 79.3331C256.279 80.3649 254.985 82.4189 254.247 85.495Z" fill="#0051FE"/>
</svg>
