<svg width="41" height="42" viewBox="0 0 41 42" fill="none" xmlns="http://www.w3.org/2000/svg">
<path fill-rule="evenodd" clip-rule="evenodd" d="M3.6134 14.462C3.6134 8.81988 8.18721 4.24609 13.8293 4.24609H27.5161C33.1581 4.24609 37.7319 8.8199 37.7319 14.462V28.1488C37.7319 33.7908 33.1581 38.3646 27.5161 38.3646H13.8293C8.18719 38.3646 3.6134 33.7908 3.6134 28.1488V14.462ZM13.8293 8.10114C10.3163 8.10114 7.46845 10.949 7.46845 14.462V28.1488C7.46845 31.6617 10.3163 34.5096 13.8293 34.5096H27.5161C31.0291 34.5096 33.8769 31.6617 33.8769 28.1488V14.462C33.8769 10.949 31.0291 8.10114 27.5161 8.10114H13.8293Z" fill="white"/>
<path fill-rule="evenodd" clip-rule="evenodd" d="M11.5856 21.4707C11.5856 16.5334 15.5848 12.4492 20.5574 12.4492H20.7881C25.7606 12.4492 29.7599 16.5334 29.7599 21.4707C29.7599 26.4081 25.7606 30.4922 20.7881 30.4922H20.5574C15.5848 30.4922 11.5856 26.4081 11.5856 21.4707ZM20.5574 16.3043C17.7491 16.3043 15.4406 18.6271 15.4406 21.4707C15.4406 24.3143 17.7491 26.6372 20.5574 26.6372H20.7881C23.5964 26.6372 25.9048 24.3143 25.9048 21.4707C25.9048 18.6271 23.5964 16.3043 20.7881 16.3043H20.5574Z" fill="white"/>
<path d="M31.8848 12.2576C31.8848 13.5206 30.8609 14.5444 29.5979 14.5444C28.3349 14.5444 27.311 13.5206 27.311 12.2576C27.311 10.9946 28.3349 9.9707 29.5979 9.9707C30.8609 9.9707 31.8848 10.9946 31.8848 12.2576Z" fill="white"/>
</svg>
