<svg width="41" height="42" viewBox="0 0 41 42" fill="none" xmlns="http://www.w3.org/2000/svg">
<path d="M34.6681 24.9906C34.3734 25.1936 34.0293 25.3134 33.6723 25.3374C33.3152 25.3614 32.9582 25.2886 32.639 25.1268C31.8897 24.7035 31.4858 23.7108 31.4858 22.3581V18.2124C31.4858 16.2223 30.6975 14.8064 29.3789 14.422C27.1503 13.7699 25.4862 16.4997 24.8439 17.5264L20.9026 23.9055V16.1201C20.8588 14.3246 20.2749 13.2493 19.1704 12.9281C18.4405 12.7141 17.3457 12.8016 16.2801 14.4268L7.46802 28.5718C6.29555 26.3286 5.68761 23.8334 5.69686 21.3023C5.69686 12.7773 12.509 5.84349 20.9026 5.84349C29.2962 5.84349 36.1327 12.7773 36.1327 21.3023V21.346C36.1327 21.346 36.1327 21.3752 36.1327 21.3898C36.2154 23.0394 35.6802 24.3531 34.6729 24.9906H34.6681ZM39.5339 21.3071V21.2244C39.4658 10.8358 31.1355 2.4082 20.9026 2.4082C10.6697 2.4082 2.29077 10.8845 2.29077 21.3023C2.29077 31.72 10.6406 40.2012 20.9026 40.2012C25.6092 40.2009 30.1368 38.3969 33.5538 35.1602C33.8855 34.8477 34.0806 34.4171 34.097 33.9617C34.1134 33.5063 33.9497 33.0628 33.6414 32.7272C33.4938 32.564 33.3154 32.4316 33.1165 32.3376C32.9176 32.2436 32.702 32.1898 32.4823 32.1794C32.2625 32.169 32.0428 32.2022 31.8359 32.277C31.629 32.3518 31.4389 32.4668 31.2766 32.6153C29.8054 34.0108 28.0675 35.0946 26.1671 35.8017C24.2666 36.5088 22.2429 36.8245 20.2174 36.73C18.1919 36.6355 16.2064 36.1326 14.3801 35.2516C12.5538 34.3706 10.9243 33.1297 9.58953 31.6032L17.5208 18.8547V24.7375C17.5208 27.5646 18.6157 28.4794 19.5353 28.747C20.4549 29.0146 21.8612 28.8297 23.3355 26.4357L27.7148 19.3462C27.851 19.1175 27.9824 18.9229 28.0992 18.7526V22.3581C28.0992 25.0003 29.1599 27.1121 31.0187 28.1534C31.8639 28.6096 32.8163 28.8301 33.776 28.7915C34.7357 28.753 35.6674 28.4569 36.4733 27.9344C38.5169 26.606 39.6312 24.2023 39.5144 21.3071H39.5339Z" fill="white"/>
</svg>
