<svg width="42" height="41" viewBox="0 0 42 41" fill="none" xmlns="http://www.w3.org/2000/svg">
<path d="M33.4789 9.37349C33.2201 9.23971 32.9681 9.09306 32.724 8.93409C32.0139 8.46469 31.3629 7.9116 30.785 7.28673C29.339 5.63219 28.7989 3.95368 28.6 2.77848H28.608C28.4418 1.80301 28.5105 1.17188 28.5209 1.17188H21.9347V26.6395C21.9347 26.9815 21.9347 27.3194 21.9203 27.6534C21.9203 27.6949 21.9163 27.7332 21.9139 27.778C21.9139 27.7964 21.9139 27.8155 21.9099 27.8347C21.9099 27.8395 21.9099 27.8443 21.9099 27.8491C21.8405 28.7629 21.5476 29.6456 21.0569 30.4196C20.5663 31.1936 19.8929 31.8351 19.0961 32.2878C18.2657 32.7603 17.3265 33.0081 16.3711 33.0069C13.3024 33.0069 10.8154 30.5047 10.8154 27.4145C10.8154 24.3243 13.3024 21.8221 16.3711 21.8221C16.9519 21.8216 17.5292 21.913 18.0815 22.0929L18.0895 15.3869C16.4129 15.1703 14.7096 15.3036 13.087 15.7782C11.4645 16.2529 9.95792 17.0587 8.66238 18.1447C7.52718 19.1311 6.57281 20.3079 5.84222 21.6224C5.5642 22.1017 4.51523 24.0279 4.38821 27.154C4.30831 28.9284 4.84119 30.7667 5.09524 31.5265V31.5424C5.25502 31.9898 5.87418 33.5166 6.8832 34.8036C7.69684 35.836 8.65813 36.7429 9.73611 37.4951V37.4792L9.75209 37.4951C12.9405 39.6618 16.4757 39.5196 16.4757 39.5196C17.0877 39.4948 19.1377 39.5196 21.4657 38.4163C24.0478 37.1931 25.5178 35.3708 25.5178 35.3708C26.4569 34.282 27.2036 33.0411 27.726 31.7014C28.322 30.1348 28.5209 28.2557 28.5209 27.5048V13.9936C28.6008 14.0415 29.6649 14.7454 29.6649 14.7454C29.6649 14.7454 31.198 15.728 33.59 16.3679C35.306 16.8233 37.6181 16.9192 37.6181 16.9192V10.3809C36.808 10.4688 35.163 10.2131 33.4789 9.37349Z" fill="white"/>
</svg>
